<svg width="35" height="35" xmlns="http://www.w3.org/2000/svg" xmlns:xlink="http://www.w3.org/1999/xlink" xml:space="preserve" overflow="hidden"><defs><clipPath id="clip0"><rect x="0" y="0" width="35" height="35"/></clipPath></defs><g clip-path="url(#clip0)"><path d="M27.999-3.2 5.999-3.2C0.485-3.2-4.001 1.286-4.001 6.8L-4.001 28.8C-4.001 34.314 0.485 38.8 5.999 38.8L27.999 38.8C33.513 38.8 37.999 34.314 37.999 28.8L37.999 6.8C37.999 1.286 33.513-3.2 27.999-3.2ZM16.999 30.05C13.499 30.05 10.499 28.8 7.999 27.3L10.499 24.8C11.999 25.8 14.999 26.8 16.999 26.8 17.999 26.8 21.499 26.55 21.499 23.3 21.499 18.55 8.499 20.05 8.499 12.3 8.499 7.8 12.999 5.8 16.999 5.8 20.999 5.8 22.999 6.8 24.499 8.05L21.999 10.3C20.749 9.3 18.249 8.8 16.999 8.8 15.999 8.8 12.499 9.3 12.499 12.3 12.499 16.55 25.499 16.3 25.499 23.3 25.499 28.55 19.999 30.05 16.999 30.05Z"/></g></svg>